<svg id="Layer_1" data-name="Layer 1" xmlns="http://www.w3.org/2000/svg" xmlns:xlink="http://www.w3.org/1999/xlink" viewBox="0 0 120 120"><defs><style>.cls-1{fill:#fff;}.cls-2{mask:url(#mask);}.cls-3{fill:#f5e1a5;}.cls-4{fill:#f4d988;}.cls-5{fill:#ecc03f;}.cls-6{fill:#f0d175;}.cls-7{fill:#e2b32d;}.cls-8{fill:#ebc451;}</style><mask id="mask" x="14" y="13" width="94.99" height="93" maskUnits="userSpaceOnUse"><g id="mask-2"><path id="path-1" class="cls-1" d="M60,14C42.91,14,29,28.25,29,45.75c0,16.92,28.1,57.57,29.26,59.36a2.14,2.14,0,0,0,3.48,0C62.9,103.33,91,62.67,91,45.75,91,28.25,77.09,14,60,14Zm0,41.85A11.87,11.87,0,1,1,71.59,44,11.77,11.77,0,0,1,60,55.85Z"/></g></mask></defs><title>Artboard 1</title><g id="Page-2"><g id="Icon-Transparent"><g id="Mask-Copy"><g class="cls-2"><path id="Combined-Shape-Copy-5" class="cls-3" d="M45.66,13H14V44.57h0Z"/><path id="Combined-Shape-Copy-6" class="cls-4" d="M14,44.57H45.66V13h0Z"/><path id="Combined-Shape-Copy-5-2" data-name="Combined-Shape-Copy-5" class="cls-5" d="M109,13H77.33V44.57h0Z"/><path id="Combined-Shape-Copy-15" class="cls-6" d="M77.32,13H45.67V44.57h0Z"/><path id="Combined-Shape-Copy-6-2" data-name="Combined-Shape-Copy-6" class="cls-7" d="M77.33,44.57H109V13h0Z"/><path id="Combined-Shape-Copy-16" class="cls-8" d="M45.67,44.57H77.32V13h0Z"/><path id="Combined-Shape-Copy-5-3" data-name="Combined-Shape-Copy-5" class="cls-3" d="M45.66,43.66H14V75.23h0Z"/><path id="Combined-Shape-Copy-6-3" data-name="Combined-Shape-Copy-6" class="cls-4" d="M14,75.23H45.66V43.66h0Z"/><path id="Combined-Shape-Copy-5-4" data-name="Combined-Shape-Copy-5" class="cls-5" d="M109,43.33H77.33V74.89h0Z"/><path id="Combined-Shape-Copy-15-2" data-name="Combined-Shape-Copy-15" class="cls-6" d="M77.32,43.66H45.67V75.23h0Z"/><path id="Combined-Shape-Copy-6-4" data-name="Combined-Shape-Copy-6" class="cls-7" d="M77.33,74.89H109V43.33h0Z"/><path id="Combined-Shape-Copy-16-2" data-name="Combined-Shape-Copy-16" class="cls-8" d="M45.67,75.23H77.32V43.66h0Z"/><path id="Combined-Shape-Copy-5-5" data-name="Combined-Shape-Copy-5" class="cls-3" d="M45.66,74.32H14v31.57h0Z"/><path id="Combined-Shape-Copy-6-5" data-name="Combined-Shape-Copy-6" class="cls-4" d="M14,105.89H45.66V74.32h0Z"/><path id="Combined-Shape-Copy-5-6" data-name="Combined-Shape-Copy-5" class="cls-5" d="M109,74.32H77.33v31.57h0Z"/><path id="Combined-Shape-Copy-15-3" data-name="Combined-Shape-Copy-15" class="cls-6" d="M77.32,74.32H45.67v31.57h0Z"/><path id="Combined-Shape-Copy-6-6" data-name="Combined-Shape-Copy-6" class="cls-7" d="M77.33,105.89H109V74.32h0Z"/><path id="Combined-Shape-Copy-16-3" data-name="Combined-Shape-Copy-16" class="cls-8" d="M45.67,105.89H77.32V74.32h0Z"/></g></g></g></g></svg>