<?xml version="1.0" encoding="utf-8"?>
<!-- Generator: Adobe Illustrator 21.0.2, SVG Export Plug-In . SVG Version: 6.00 Build 0)  -->
<svg version="1.1" id="Layer_1" xmlns="http://www.w3.org/2000/svg" xmlns:xlink="http://www.w3.org/1999/xlink" x="0px" y="0px"
	 viewBox="0 0 120 120" style="enable-background:new 0 0 120 120;" xml:space="preserve">
<style type="text/css">
	.st0{display:none;}
	.st1{filter:url(#Adobe_OpacityMaskFilter);}
	.st2{fill:#FFFFFF;}
	.st3{mask:url(#mask-2);}
	.st4{fill:#F5E1A5;}
	.st5{fill:#F4D988;}
	.st6{fill:#ECC03F;}
	.st7{fill:#F0D175;}
	.st8{fill:#E2B32D;}
	.st9{fill:#EBC451;}
</style>
<rect x="-7.3" y="-25.4" transform="matrix(-1 -8.979630e-11 8.979630e-11 -1 179.3512 118.183)" class="st0" width="194" height="169"/>
<g id="Page-2">
	<g id="Icon-Transparent">
		<g id="Mask-Copy" transform="translate(29.000000, 14.000000)">
			<defs>
				<filter id="Adobe_OpacityMaskFilter" filterUnits="userSpaceOnUse" x="-16.5" y="-0.4" width="95" height="92.9">
					<feColorMatrix  type="matrix" values="1 0 0 0 0  0 1 0 0 0  0 0 1 0 0  0 0 0 1 0"/>
				</filter>
			</defs>
			<mask maskUnits="userSpaceOnUse" x="-16.5" y="-0.4" width="95" height="92.9" id="mask-2">
				<g class="st1">
					<path id="path-1" class="st2" d="M32.5,91.4c17.1,0,31-14.2,31-31.8c0-16.9-28.1-57.6-29.3-59.4c-0.3-0.6-1.2-0.9-1.7-0.9
						c-0.6,0-1.4,0.3-1.7,0.9C29.6,2.1,1.5,42.8,1.5,59.7C1.5,77.2,15.4,91.4,32.5,91.4z M32.5,49.6c6.4,0,11.6,5.3,11.6,11.9
						s-5.2,11.9-11.6,11.9S20.9,68,20.9,61.5S26.1,49.6,32.5,49.6z"/>
				</g>
			</mask>
			<g class="st3">
				<g transform="translate(-15.000000, -1.000000)">
					<path id="Combined-Shape-Copy-5" class="st4" d="M61.8,93.4h31.7V61.9H77.7h15.8L61.8,93.4z"/>
					<path id="Combined-Shape-Copy-6" class="st5" d="M93.5,61.9H61.8v31.6h15.8H61.8L93.5,61.9z"/>
					<path id="Combined-Shape-Copy-5_1_" class="st6" d="M-1.5,93.4h31.7V61.9H14.3h15.8L-1.5,93.4z"/>
					<path id="Combined-Shape-Copy-15" class="st7" d="M30.2,93.4l31.7,0V61.9H46h15.8L30.2,93.4z"/>
					<path id="Combined-Shape-Copy-6_1_" class="st8" d="M30.2,61.9H-1.5v31.6h15.8H-1.5L30.2,61.9z"/>
					<path id="Combined-Shape-Copy-16" class="st9" d="M61.8,61.9H30.2v31.6H46H30.2L61.8,61.9z"/>
					<path id="Combined-Shape-Copy-5_2_" class="st4" d="M61.8,62.8h31.7V31.2H77.7h15.8L61.8,62.8z"/>
					<path id="Combined-Shape-Copy-6_2_" class="st5" d="M93.5,31.2H61.8l0,31.6h15.8H61.8L93.5,31.2z"/>
					<path id="Combined-Shape-Copy-5_3_" class="st6" d="M-1.5,63.1h31.7V31.5H14.3h15.8L-1.5,63.1z"/>
					<path id="Combined-Shape-Copy-15_1_" class="st7" d="M30.2,62.8h31.7l0-31.6H46h15.8L30.2,62.8z"/>
					<path id="Combined-Shape-Copy-6_3_" class="st8" d="M30.2,31.5H-1.5v31.6h15.8H-1.5L30.2,31.5z"/>
					<path id="Combined-Shape-Copy-16_1_" class="st9" d="M61.8,31.2H30.2v31.6H46H30.2L61.8,31.2z"/>
					<path id="Combined-Shape-Copy-5_4_" class="st4" d="M61.8,32.1h31.7V0.6H77.7h15.8L61.8,32.1z"/>
					<path id="Combined-Shape-Copy-6_4_" class="st5" d="M93.5,0.6H61.8v31.6h15.8H61.8L93.5,0.6z"/>
					<path id="Combined-Shape-Copy-5_5_" class="st6" d="M-1.5,32.1h31.7V0.6H14.3h15.8L-1.5,32.1z"/>
					<path id="Combined-Shape-Copy-15_2_" class="st7" d="M30.2,32.1h31.7V0.6H46h15.8L30.2,32.1z"/>
					<path id="Combined-Shape-Copy-6_5_" class="st8" d="M30.2,0.6H-1.5v31.6h15.8H-1.5L30.2,0.6z"/>
					<path id="Combined-Shape-Copy-16_2_" class="st9" d="M61.8,0.6H30.2v31.6H46H30.2L61.8,0.6z"/>
				</g>
			</g>
		</g>
	</g>
</g>
</svg>
